# Blender v2.77 (sub 0) OBJ File: 'ramp.blend'
# www.blender.org
mtllib ramp.mtl
o Ramp
v 1.000000 0.000000 -1.000000
v 1.000000 0.000000 1.000000
v -1.000000 0.000000 1.000000
v -1.000000 0.000000 -1.000000
v 1.001062 2.001063 1.001063
v -1.001063 2.001063 1.001062
vn 0.000000 -1.000000 0.000000
vn -0.000000 -0.000500 1.000000
vn 1.000000 -0.000500 0.000000
vn -1.000000 -0.000500 -0.000000
vn 0.000000 0.707100 -0.707100
usemtl ramp.mtl
s off
f 1//1 2//1 3//1 4//1
f 2//2 5//2 6//2 3//2
f 2//3 1//3 5//3
f 4//4 3//4 6//4
f 4//5 6//5 5//5 1//5
