# Blender v2.77 (sub 0) OBJ File: 'wheel1.blend'
# www.blender.org
mtllib wheel.mtl
o Cube
v 0.478431 -0.824278 -0.741085
v 0.478431 -0.858022 0.705527
v 0.478432 0.826291 -0.697368
v 0.478431 0.846133 0.728729
v 0.478431 0.000000 -1.028657
v 0.478431 0.000000 1.036515
v 0.478431 -1.022092 -0.000000
v 0.478431 0.987762 0.000001
v 0.069986 0.000000 0.000000
v 0.478431 -0.934623 0.455206
v 0.478431 0.933686 0.455206
v 0.069986 0.000000 0.455206
v 0.478431 -0.934623 -0.448918
v 0.478432 0.933686 -0.448918
v 0.069986 0.000000 -0.448918
v 0.478432 0.433686 -0.948918
v 0.478431 0.433686 0.955206
v 0.069986 0.433686 0.000000
v 0.069986 0.433686 0.455206
v 0.069986 0.433686 -0.448918
v 0.478431 -0.434623 -0.948918
v 0.478431 -0.434623 0.955206
v 0.069986 -0.434623 0.000000
v 0.069986 -0.434623 0.455206
v 0.069986 -0.434623 -0.448918
v 0.351510 -1.431096 -0.371524
v 0.351511 1.334582 -0.970412
v 0.351510 -1.325803 0.922818
v 0.351510 1.325579 0.986567
v 0.351510 0.026884 1.594810
v 0.351511 0.000000 -1.478562
v 0.351511 1.577469 0.000000
v 0.351510 -1.463935 -0.000000
v 0.351511 1.500669 0.455206
v 0.351510 -1.463935 0.455206
v 0.351510 -1.258352 -0.860338
v 0.351511 1.517230 -0.448918
v 0.351510 0.509668 1.548832
v 0.351511 0.471242 -1.441709
v 0.351511 -0.511758 -1.409109
v 0.351510 -0.653953 1.488949
v 0.351511 0.889108 -1.313359
v 0.351511 -0.916273 -1.186114
v 0.351510 0.969704 1.394195
v 0.351510 -1.108647 1.246228
v 0.414972 1.274739 -0.939983
v 0.414971 1.413418 -0.448918
v 0.414971 1.503953 0.000000
v 0.414971 1.417121 0.455206
v 0.414971 1.290786 0.976554
v 0.414971 0.490896 1.479592
v 0.414971 0.026884 1.521315
v 0.414971 -0.605054 1.441835
v 0.414971 -1.283961 0.897924
v 0.415692 -1.418510 -0.000000
v 0.414971 -1.401503 -0.376298
v 0.414971 -1.222439 -0.840318
v 0.414971 -0.481202 -1.349618
v 0.414971 0.000000 -1.409470
v 0.410340 0.437935 -1.345016
v 0.478431 -0.628390 -0.899772
v 0.478432 0.657409 -0.876344
v 0.478431 0.609142 0.882300
v 0.478431 -0.626988 0.897911
v 0.414971 -1.067302 1.199667
v 0.414971 0.939670 1.339336
v 0.414971 0.906751 -1.176737
v 0.408553 -0.900019 -1.136637
v 0.414971 -1.422680 0.455206
v 0.069986 0.851320 -0.448918
v 0.069986 0.925810 0.000000
v 0.069986 0.859862 0.455206
v 0.069986 0.433686 0.853595
v 0.069986 0.000000 0.961360
v 0.069986 -0.434623 0.885700
v 0.069986 -0.856004 0.455206
v 0.069986 -0.923303 0.000000
v 0.069986 -0.831230 -0.448918
v 0.069986 -0.434623 -0.872454
v 0.069986 0.000000 -0.946308
v 0.069986 0.433686 -0.847001
v 0.069986 -0.770613 -0.682498
v 0.069986 -0.806826 0.660521
v 0.069985 0.796423 0.681174
v 0.069986 0.772482 -0.657413
v 0.069986 0.632864 -0.820081
v 0.069986 -0.619425 -0.840185
v 0.069986 -0.597350 0.847552
v 0.069985 0.590432 0.845895
v 0.069986 -0.434623 -0.872454
v 0.069986 -0.434623 -0.872454
v -0.478431 -0.824278 -0.741085
v -0.478431 -0.858022 0.705527
v -0.478432 0.826291 -0.697368
v -0.478431 0.846133 0.728729
v -0.000000 -1.431096 -0.371524
v 0.000000 -1.325803 0.922817
v -0.000000 1.334582 -0.970412
v 0.000000 1.325579 0.986567
v -0.478432 0.000000 -1.028657
v -0.478431 0.000000 1.036515
v 0.000000 0.026884 1.594810
v -0.000000 0.000000 -1.478562
v -0.478431 -1.022092 0.000000
v -0.478431 0.987762 0.000001
v 0.000000 1.577469 0.000000
v -0.000000 -1.463935 -0.000000
v -0.069986 0.000000 0.000000
v -0.478431 -0.934623 0.455206
v -0.478431 0.933686 0.455206
v 0.000000 -1.463935 0.455206
v -0.069986 0.000000 0.455206
v 0.000000 1.500669 0.455206
v -0.000000 1.517230 -0.448918
v -0.478431 -0.934623 -0.448918
v -0.478432 0.933686 -0.448918
v -0.000000 -1.258352 -0.860338
v -0.069986 0.000000 -0.448918
v -0.478432 0.433686 -0.948918
v -0.478431 0.433686 0.955206
v 0.000000 0.509668 1.548832
v -0.000000 0.471242 -1.441709
v -0.069986 0.433686 0.000000
v -0.069986 0.433686 0.455206
v -0.069986 0.433686 -0.448918
v 0.000000 -0.653953 1.488949
v -0.000000 -0.511758 -1.409109
v -0.478431 -0.434623 -0.948918
v -0.478431 -0.434623 0.955206
v -0.069986 -0.434623 0.000000
v -0.069986 -0.434623 0.455206
v -0.069986 -0.434623 -0.448918
v -0.351511 -1.431096 -0.371524
v -0.351511 1.334582 -0.970412
v -0.351510 -1.325803 0.922818
v -0.351510 1.325579 0.986567
v -0.351510 0.026884 1.594810
v -0.351511 0.000000 -1.478562
v -0.351511 1.577469 0.000000
v -0.351510 -1.463935 -0.000000
v -0.351510 1.500669 0.455206
v -0.351510 -1.463935 0.455206
v -0.351511 -1.258352 -0.860338
v -0.351511 1.517230 -0.448918
v -0.351510 0.509668 1.548832
v -0.351511 0.471242 -1.441709
v -0.351511 -0.511758 -1.409109
v -0.351510 -0.653953 1.488949
v -0.351511 0.889108 -1.313359
v -0.000000 0.889108 -1.313359
v -0.351511 -0.916273 -1.186114
v -0.000000 -0.916273 -1.186114
v -0.351510 0.969704 1.394195
v 0.000000 0.969704 1.394194
v -0.351510 -1.108647 1.246228
v 0.000000 -1.108647 1.246228
v -0.414972 1.274739 -0.939983
v -0.414971 1.413418 -0.448918
v -0.414971 1.503953 0.000000
v -0.414971 1.417121 0.455206
v -0.414971 1.290786 0.976554
v -0.414971 0.490896 1.479592
v -0.414971 0.026884 1.521315
v -0.414971 -0.605054 1.441835
v -0.414971 -1.283961 0.897924
v -0.415692 -1.418510 0.000000
v -0.414971 -1.401503 -0.376298
v -0.414971 -1.222439 -0.840318
v -0.414971 -0.481202 -1.349618
v -0.414971 0.000000 -1.409470
v -0.410340 0.437935 -1.345016
v -0.478431 -0.628390 -0.899772
v -0.478432 0.657409 -0.876344
v -0.478431 0.609142 0.882300
v -0.478431 -0.626988 0.897911
v -0.414971 -1.067302 1.199667
v -0.414971 0.939670 1.339336
v -0.414971 0.906751 -1.176737
v -0.408553 -0.900019 -1.136637
v -0.414971 -1.422680 0.455206
v -0.069986 0.851320 -0.448918
v -0.069986 0.925810 0.000000
v -0.069986 0.859862 0.455206
v -0.069985 0.433686 0.853595
v -0.069985 0.000000 0.961360
v -0.069985 -0.434623 0.885700
v -0.069986 -0.856004 0.455206
v -0.069986 -0.923303 0.000000
v -0.069986 -0.831230 -0.448918
v -0.069986 -0.434623 -0.872454
v -0.069986 0.000000 -0.946308
v -0.069986 0.433686 -0.847001
v -0.069986 -0.770613 -0.682498
v -0.069986 -0.806826 0.660521
v -0.069985 0.796423 0.681174
v -0.069986 0.772482 -0.657413
v -0.069986 0.632864 -0.820081
v -0.069986 -0.619425 -0.840185
v -0.069985 -0.597350 0.847552
v -0.069985 0.590432 0.845895
v -0.069986 -0.434623 -0.872454
v -0.069986 -0.434623 -0.872454
vt 0.6076 0.0191
vt 0.5736 0.0641
vt 0.5440 0.0554
vt 0.5556 0.0012
vt 0.3858 0.2621
vt 0.3570 0.2070
vt 0.4153 0.1938
vt 0.4269 0.2250
vt 0.5663 0.3541
vt 0.5142 0.3671
vt 0.5292 0.3066
vt 0.5605 0.3059
vt 0.4625 0.2059
vt 0.4544 0.1899
vt 0.4163 0.3812
vt 0.4722 0.3799
vt 0.4724 0.4166
vt 0.4168 0.4166
vt 0.2431 0.3796
vt 0.3159 0.3792
vt 0.3159 0.4166
vt 0.2436 0.4166
vt 0.5090 0.1061
vt 0.4800 0.1273
vt 0.4516 0.1016
vt 0.4888 0.0720
vt 0.6977 0.2500
vt 0.6613 0.2967
vt 0.6280 0.2641
vt 0.6578 0.2220
vt 0.1079 0.5072
vt 0.1386 0.5391
vt 0.1056 0.5708
vt 0.0749 0.5388
vt 0.5171 0.2581
vt 0.4984 0.2962
vt 0.4575 0.2652
vt 0.4850 0.2368
vt 0.4592 0.3377
vt 0.4147 0.3072
vt 0.9481 0.4166
vt 0.9480 0.3830
vt 0.9985 0.3799
vt 0.9999 0.4166
vt 0.0721 0.6029
vt 0.0415 0.5709
vt 0.6487 0.0527
vt 0.6187 0.0899
vt 0.9475 0.3758
vt 0.9965 0.3730
vt 0.5343 0.2648
vt 0.1391 0.4773
vt 0.1751 0.5041
vt 0.1984 0.5430
vt 0.1691 0.5710
vt 0.1361 0.6027
vt 0.1027 0.6348
vt 0.3664 0.3795
vt 0.3665 0.4166
vt 0.4626 0.1593
vt 0.4256 0.1415
vt 0.6193 0.3284
vt 0.5865 0.2944
vt 0.1237 0.4660
vt 0.1391 0.4773
vt 0.0405 0.5029
vt 0.0118 0.5399
vt 0.0800 0.4780
vt 0.9033 0.3832
vt 0.9033 0.4166
vt 0.8601 0.4166
vt 0.8602 0.3841
vt 0.0012 0.5866
vt 0.0098 0.6013
vt 0.1897 0.3800
vt 0.1900 0.4166
vt 0.1898 0.3702
vt 0.2465 0.3702
vt 0.0001 0.3675
vt 0.0437 0.3674
vt 0.0437 0.3764
vt 0.0009 0.3756
vt 0.8115 0.4166
vt 0.7670 0.4166
vt 0.7664 0.3836
vt 0.8114 0.3829
vt 0.3157 0.3690
vt 0.3662 0.3692
vt 0.6748 0.4166
vt 0.6223 0.4166
vt 0.6226 0.3816
vt 0.6745 0.3839
vt 0.0433 0.4166
vt 0.0951 0.3776
vt 0.0945 0.4166
vt 0.5772 0.4166
vt 0.5299 0.4166
vt 0.5300 0.3799
vt 0.5772 0.3811
vt 0.0005 0.4166
vt 0.4169 0.3716
vt 0.4711 0.3724
vt 0.7271 0.4166
vt 0.7268 0.3845
vt 0.1486 0.3781
vt 0.1480 0.4166
vt 0.9048 0.3759
vt 0.8592 0.3751
vt 0.1483 0.3694
vt 0.5085 0.0617
vt 0.5144 0.0001
vt 0.0959 0.3690
vt 0.6528 0.1300
vt 0.6830 0.0820
vt 0.6685 0.1660
vt 0.7130 0.1372
vt 0.7135 0.1933
vt 0.6674 0.1991
vt 0.8117 0.3739
vt 0.7676 0.3719
vt 0.7189 0.3722
vt 0.6758 0.3754
vt 0.6255 0.3694
vt 0.5773 0.3709
vt 0.5279 0.3689
vt 0.4189 0.1607
vt 0.3570 0.1526
vt 0.3795 0.1073
vt 0.4099 0.0679
vt 0.4617 0.0222
vt 0.0001 0.5580
vt 0.4567 0.1702
vt 0.2105 0.5595
vt 0.2083 0.5812
vt 0.1014 0.4660
vt 0.0734 0.6628
vt 0.0850 0.6738
vt 0.1327 0.6661
vt 0.1116 0.6773
vt 0.1708 0.6388
vt 0.1986 0.6017
vt 0.5505 0.2662
vt 0.5651 0.2559
vt 0.5971 0.2341
vt 0.6176 0.2008
vt 0.6182 0.2000
vt 0.6264 0.1867
vt 0.6250 0.1704
vt 0.6144 0.1532
vt 0.5910 0.1222
vt 0.5579 0.1028
vt 0.5428 0.0962
vt 0.5211 0.0995
vt 0.0349 0.6385
vt 0.2508 0.3482
vt 0.1988 0.3661
vt 0.1871 0.3119
vt 0.2168 0.3032
vt 0.0290 0.1052
vt 0.0700 0.1423
vt 0.0585 0.1735
vt 0.0001 0.1603
vt 0.2095 0.0132
vt 0.2037 0.0614
vt 0.1724 0.0607
vt 0.1574 0.0001
vt 0.1057 0.1614
vt 0.0975 0.1774
vt 0.4163 0.4520
vt 0.4722 0.4532
vt 0.2431 0.4536
vt 0.3159 0.4539
vt 0.1522 0.2612
vt 0.1320 0.2953
vt 0.0948 0.2657
vt 0.1232 0.2400
vt 0.3409 0.1173
vt 0.3010 0.1453
vt 0.2712 0.1032
vt 0.3045 0.0706
vt 0.3185 0.6362
vt 0.2855 0.6045
vt 0.3162 0.5726
vt 0.3492 0.6042
vt 0.1603 0.1092
vt 0.1282 0.1305
vt 0.1007 0.1021
vt 0.1416 0.0711
vt 0.1024 0.0295
vt 0.0579 0.0601
vt 0.9985 0.4533
vt 0.9480 0.4501
vt 0.2521 0.5725
vt 0.2827 0.5405
vt 0.2919 0.3146
vt 0.2619 0.2774
vt 0.9475 0.4574
vt 0.9965 0.4602
vt 0.1775 0.1025
vt 0.3497 0.6660
vt 0.3857 0.6393
vt 0.3797 0.5723
vt 0.4090 0.6004
vt 0.3133 0.5086
vt 0.3467 0.5407
vt 0.3664 0.4537
vt 0.0687 0.2258
vt 0.1058 0.2080
vt 0.2297 0.0729
vt 0.2625 0.0389
vt 0.3343 0.6773
vt 0.3497 0.6660
vt 0.2511 0.6405
vt 0.2224 0.6034
vt 0.2906 0.6653
vt 0.9033 0.4500
vt 0.8602 0.4491
vt 0.2118 0.5568
vt 0.2204 0.5421
vt 0.1897 0.4532
vt 0.1898 0.4630
vt 0.2465 0.4629
vt 0.0001 0.4657
vt 0.0009 0.4576
vt 0.0437 0.4567
vt 0.0437 0.4657
vt 0.8114 0.4503
vt 0.7664 0.4496
vt 0.3157 0.4642
vt 0.3662 0.4640
vt 0.6745 0.4493
vt 0.6226 0.4516
vt 0.0951 0.4556
vt 0.5772 0.4520
vt 0.5300 0.4533
vt 0.4169 0.4615
vt 0.4711 0.4608
vt 0.7268 0.4487
vt 0.1486 0.4551
vt 0.9048 0.4573
vt 0.8592 0.4580
vt 0.1483 0.4638
vt 0.1576 0.3671
vt 0.1517 0.3056
vt 0.0959 0.4642
vt 0.2960 0.2373
vt 0.3262 0.2853
vt 0.3117 0.2013
vt 0.3562 0.2301
vt 0.3105 0.1682
vt 0.3567 0.1740
vt 0.8117 0.4593
vt 0.7676 0.4613
vt 0.7189 0.4610
vt 0.6758 0.4577
vt 0.6255 0.4638
vt 0.5773 0.4623
vt 0.5279 0.4643
vt 0.0620 0.2066
vt 0.0001 0.2146
vt 0.0226 0.2599
vt 0.0531 0.2994
vt 0.1049 0.3451
vt 0.2108 0.5853
vt 0.0999 0.1971
vt 0.4211 0.5839
vt 0.4189 0.5621
vt 0.3120 0.6773
vt 0.2840 0.4805
vt 0.2956 0.4696
vt 0.3222 0.4660
vt 0.3433 0.4773
vt 0.3814 0.5045
vt 0.4092 0.5416
vt 0.1937 0.1011
vt 0.2082 0.1114
vt 0.2403 0.1332
vt 0.2608 0.1665
vt 0.2695 0.1806
vt 0.2614 0.1673
vt 0.2681 0.1969
vt 0.2576 0.2141
vt 0.2342 0.2451
vt 0.2011 0.2645
vt 0.1860 0.2711
vt 0.1643 0.2678
vt 0.2455 0.5048
vn 0.8333 -0.5460 0.0863
vn 0.8240 0.5531 -0.1228
vn 0.8664 0.4187 -0.2722
vn 0.8510 -0.4732 0.2276
vn 0.9000 0.4241 0.1002
vn 0.8538 0.4471 0.2666
vn 0.8715 -0.3943 -0.2914
vn 0.8228 -0.5558 -0.1181
vn 0.9229 0.1929 -0.3333
vn 0.9069 0.3363 -0.2538
vn 0.8411 -0.4621 0.2810
vn 0.8718 -0.2562 0.4174
vn 0.7492 -0.6471 -0.1408
vn 0.7017 -0.5817 -0.4113
vn 0.3403 0.5196 0.7837
vn 0.3333 0.8219 0.4619
vn 0.0000 0.8688 0.4951
vn 0.0000 0.5553 0.8317
vn 0.3701 -0.3056 0.8773
vn 0.3867 -0.0261 0.9218
vn 0.0000 -0.0296 0.9995
vn 0.0000 -0.3167 0.9485
vn 0.7560 0.1438 -0.6386
vn 0.7327 -0.0123 -0.6803
vn 0.8496 -0.0119 -0.5273
vn 0.8127 0.1215 -0.5699
vn 0.8781 -0.1408 -0.4572
vn 0.9014 -0.0036 -0.4330
vn 0.8630 -0.0054 0.5051
vn 0.8254 0.0926 0.5569
vn 1.0000 0.0000 0.0000
vn 0.7466 -0.6414 0.1765
vn 0.8363 -0.5296 0.1419
vn 0.8293 -0.5587 0.0032
vn 0.7342 -0.6789 0.0038
vn 0.9243 0.3702 -0.0921
vn 0.9143 0.4050 0.0040
vn 0.0000 -0.8393 -0.5436
vn 0.2673 -0.8093 -0.5230
vn 0.2495 -0.9478 -0.1984
vn 0.0000 -0.9772 -0.2123
vn 0.8365 -0.5477 -0.0186
vn 0.8645 0.5026 0.0063
vn 0.8086 -0.4904 -0.3249
vn 0.8019 -0.5823 -0.1332
vn 0.7283 -0.5809 0.3636
vn 0.8017 0.1040 0.5886
vn 0.7392 -0.0097 0.6734
vn 0.7847 -0.1339 0.6052
vn 0.3930 0.1909 0.8995
vn 0.0000 0.2081 0.9781
vn 0.7897 -0.1378 -0.5977
vn 0.8292 -0.1239 -0.5449
vn 0.9290 0.0769 -0.3618
vn 0.8411 -0.1118 0.5292
vn 0.7009 0.3315 0.6315
vn 0.7239 0.1450 0.6745
vn 0.7506 0.6606 0.0097
vn 0.7619 0.6320 -0.1415
vn 0.7757 0.6102 0.1611
vn 0.3398 -0.5490 -0.7636
vn 0.0000 -0.5911 -0.8066
vn 0.0000 -0.3139 -0.9494
vn 0.3723 -0.2945 -0.8801
vn 0.7105 0.3285 -0.6222
vn 0.3515 -0.6269 0.6953
vn 0.0000 -0.6705 0.7419
vn 0.8715 -0.3250 0.3673
vn 0.8837 -0.1290 0.4499
vn 0.2757 -0.9604 -0.0387
vn 0.0000 -0.0284 -0.9996
vn 0.0000 0.1869 -0.9824
vn 0.4724 0.1721 -0.8644
vn 0.4140 -0.0211 -0.9100
vn 0.8970 -0.0111 0.4418
vn 0.9010 0.0884 0.4248
vn 0.0000 0.8105 -0.5857
vn 0.0000 0.9725 -0.2329
vn 0.4377 0.8748 -0.2074
vn 0.4237 0.7379 -0.5254
vn 0.0000 -0.9990 -0.0440
vn 0.2899 -0.9475 0.1345
vn 0.0000 -0.9897 0.1431
vn 0.0000 0.9998 0.0168
vn 0.0000 0.9707 0.2403
vn 0.3920 0.8944 0.2151
vn 0.4287 0.9033 0.0133
vn 0.8647 0.2798 0.4171
vn 0.0000 0.4592 -0.8883
vn 0.4681 0.3929 -0.7915
vn 0.3159 -0.8567 0.4076
vn 0.0000 -0.9051 0.4253
vn 0.8478 -0.3137 -0.4274
vn 0.8441 0.2436 -0.4775
vn 0.8427 0.5219 0.1322
vn 0.8767 0.4117 0.2486
vn 0.8688 0.2135 0.4467
vn 0.8186 -0.2339 -0.5246
vn 0.7058 0.6003 -0.3760
vn 0.6938 -0.3000 -0.6546
vn 0.6968 -0.3670 0.6162
vn 0.7224 0.5842 0.3700
vn -0.8333 -0.5460 0.0863
vn -0.8510 -0.4732 0.2276
vn -0.8664 0.4187 -0.2722
vn -0.8240 0.5531 -0.1228
vn -0.9000 0.4241 0.1002
vn -0.8228 -0.5558 -0.1181
vn -0.8715 -0.3943 -0.2914
vn -0.8538 0.4471 0.2666
vn -0.9229 0.1929 -0.3333
vn -0.8718 -0.2562 0.4174
vn -0.8411 -0.4621 0.2810
vn -0.9069 0.3363 -0.2538
vn -0.7492 -0.6471 -0.1408
vn -0.7017 -0.5817 -0.4113
vn -0.3403 0.5196 0.7837
vn -0.3333 0.8219 0.4619
vn -0.3701 -0.3056 0.8773
vn -0.3867 -0.0261 0.9218
vn -0.7560 0.1438 -0.6386
vn -0.8127 0.1215 -0.5699
vn -0.8496 -0.0119 -0.5273
vn -0.7327 -0.0123 -0.6803
vn -0.8781 -0.1408 -0.4572
vn -0.8254 0.0926 0.5569
vn -0.8630 -0.0054 0.5051
vn -0.9014 -0.0036 -0.4330
vn -1.0000 0.0000 0.0000
vn -0.7466 -0.6414 0.1765
vn -0.7342 -0.6789 0.0038
vn -0.8293 -0.5587 0.0032
vn -0.8363 -0.5296 0.1419
vn -0.9243 0.3702 -0.0921
vn -0.9143 0.4050 0.0040
vn -0.2495 -0.9478 -0.1984
vn -0.2673 -0.8093 -0.5230
vn -0.8365 -0.5477 -0.0186
vn -0.8645 0.5026 0.0063
vn -0.8086 -0.4904 -0.3249
vn -0.8019 -0.5823 -0.1332
vn -0.7283 -0.5809 0.3636
vn -0.8017 0.1040 0.5886
vn -0.7392 -0.0097 0.6734
vn -0.7847 -0.1339 0.6052
vn -0.3930 0.1909 0.8995
vn -0.8292 -0.1239 -0.5449
vn -0.7897 -0.1378 -0.5977
vn -0.8411 -0.1118 0.5292
vn -0.9290 0.0769 -0.3618
vn -0.7009 0.3315 0.6315
vn -0.7239 0.1450 0.6745
vn -0.7506 0.6606 0.0097
vn -0.7619 0.6320 -0.1415
vn -0.7757 0.6102 0.1611
vn -0.3398 -0.5490 -0.7636
vn -0.3723 -0.2945 -0.8801
vn -0.7105 0.3285 -0.6222
vn -0.3515 -0.6269 0.6953
vn -0.8715 -0.3250 0.3673
vn -0.8837 -0.1290 0.4499
vn -0.2757 -0.9604 -0.0387
vn -0.4140 -0.0211 -0.9100
vn -0.4724 0.1721 -0.8644
vn -0.8970 -0.0111 0.4418
vn -0.9010 0.0884 0.4248
vn -0.4237 0.7379 -0.5254
vn -0.4377 0.8748 -0.2074
vn -0.2899 -0.9475 0.1345
vn -0.4287 0.9033 0.0133
vn -0.3920 0.8944 0.2151
vn -0.8647 0.2798 0.4171
vn -0.4681 0.3929 -0.7915
vn -0.3159 -0.8567 0.4076
vn -0.8478 -0.3137 -0.4274
vn -0.8441 0.2436 -0.4775
vn -0.8427 0.5219 0.1322
vn -0.8767 0.4117 0.2486
vn -0.8688 0.2135 0.4467
vn -0.8186 -0.2339 -0.5246
vn -0.7058 0.6003 -0.3760
vn -0.6938 -0.3000 -0.6546
vn -0.6968 -0.3670 0.6162
vn -0.7224 0.5842 0.3700
usemtl Material1
s 1
f 69/1/1 10/2/2 2/3/3 54/4/4
f 49/5/5 50/6/6 4/7/7 11/8/8
f 67/9/9 46/10/10 3/11/11 62/12/12
f 72/13/13 11/8/8 4/7/7 84/14/14
f 44/15/15 29/16/16 99/17/17 154/18/18
f 41/19/19 30/20/20 102/21/21 126/22/22
f 75/23/23 74/24/24 6/25/25 22/26/26
f 58/27/27 59/28/28 5/29/29 21/30/30
f 25/31/31 15/32/31 9/33/31 23/34/31
f 70/35/32 14/36/33 8/37/34 71/38/35
f 47/39/36 48/40/37 8/37/34 14/36/33
f 117/41/38 36/42/39 26/43/40 96/44/41
f 23/34/31 9/33/31 12/45/31 24/46/31
f 71/38/35 8/37/34 11/8/8 72/13/13
f 48/40/37 49/5/5 11/8/8 8/37/34
f 55/47/42 7/48/43 10/2/2 69/1/1
f 57/49/44 56/50/45 26/43/40 36/42/39
f 46/10/10 47/39/36 14/36/33 3/11/11
f 85/51/46 3/11/11 14/36/33 70/35/32
f 90/52/47 80/53/48 15/32/31 25/31/31
f 80/53/48 81/54/49 20/55/31 15/32/31
f 9/33/31 18/56/31 19/57/31 12/45/31
f 15/32/31 20/55/31 18/56/31 9/33/31
f 30/20/20 38/58/50 121/59/51 102/21/21
f 74/24/24 73/60/52 17/61/53 6/25/25
f 59/28/28 60/62/54 16/63/55 5/29/29
f 87/64/56 79/65/57 25/31/31
f 77/66/58 23/34/31 24/46/31 76/67/59
f 78/68/60 25/31/31 23/34/31 77/66/58
f 43/69/61 152/70/62 127/71/63 40/72/64
f 88/73/65 24/46/31 75/74/23
f 45/75/66 41/19/19 126/22/22 156/76/67
f 65/77/68 53/78/69 41/19/19 45/75/66
f 56/79/45 55/80/42 33/81/70 26/82/40
f 103/83/71 122/84/72 39/85/73 31/86/74
f 52/87/75 51/88/76 38/58/50 30/20/20
f 98/89/77 114/90/78 37/91/79 27/92/80
f 107/93/81 33/81/70 35/94/82 111/95/83
f 106/96/84 113/97/85 34/98/86 32/99/87
f 96/100/41 26/82/40 33/81/70 107/93/81
f 114/90/78 106/96/84 32/99/87 37/91/79
f 127/71/63 103/83/71 31/86/74 40/72/64
f 53/78/69 52/87/75 30/20/20 41/19/19
f 66/101/88 50/102/6 29/16/16 44/15/15
f 150/103/89 98/89/77 27/92/80 42/104/90
f 113/97/85 99/17/17 29/16/16 34/98/86
f 111/95/83 35/94/82 28/105/91 97/106/92
f 68/107/93 43/69/61 40/72/64 58/108/27
f 36/42/39 117/41/38 152/70/62 43/69/61
f 122/84/72 150/103/89 42/104/90 39/85/73
f 38/58/50 44/15/15 154/18/18 121/59/51
f 28/105/91 45/75/66 156/76/67 97/106/92
f 57/49/44 36/42/39 43/69/61 68/107/93
f 60/62/54 67/9/9 62/12/12 16/63/55
f 51/88/76 66/101/88 44/15/15 38/58/50
f 54/109/4 65/77/68 45/75/66 28/105/91
f 2/3/3 64/110/94 65/111/68 54/4/4
f 35/94/82 69/112/1 54/109/4 28/105/91
f 33/81/70 55/80/42 69/112/1 35/94/82
f 13/113/95 7/48/43 55/47/42 56/114/45
f 1/115/96 13/113/95 56/114/45 57/116/44
f 1/115/96 57/116/44 68/117/93 61/118/97
f 61/118/97 68/117/93 58/27/27 21/30/30
f 40/72/64 31/86/74 59/119/28 58/108/27
f 31/86/74 39/85/73 60/120/54 59/119/28
f 39/85/73 42/104/90 67/121/9 60/120/54
f 42/104/90 27/92/80 46/122/10 67/121/9
f 27/92/80 37/91/79 47/123/36 46/122/10
f 37/91/79 32/99/87 48/124/37 47/123/36
f 32/99/87 34/98/86 49/125/5 48/124/37
f 34/98/86 29/16/16 50/102/6 49/125/5
f 63/126/98 4/7/7 50/6/6 66/127/88
f 17/61/53 63/126/98 66/127/88 51/128/76
f 6/25/25 17/61/53 51/128/76 52/129/75
f 22/26/26 6/25/25 52/129/75 53/130/69
f 64/110/94 22/26/26 53/130/69 65/111/68
f 76/67/59 24/46/31 83/131/99
f 84/14/14 4/7/7 63/126/98 89/132/100
f 86/133/101 85/134/46 20/55/31
f 78/68/60 82/135/102 25/31/31
f 81/54/49 86/133/101 20/55/31
f 82/135/102 87/64/56 25/31/31
f 83/131/99 24/46/31 88/73/65
f 73/136/52 19/57/31 89/137/100
f 19/57/31 72/138/13 84/139/14
f 18/56/31 71/140/35 72/138/13 19/57/31
f 20/55/31 70/141/32 71/140/35 18/56/31
f 20/55/31 85/134/46 70/141/32
f 62/12/12 3/11/11 85/51/46 86/142/101
f 16/63/55 62/12/12 86/142/101 81/143/49
f 5/29/29 16/63/55 81/143/49 80/144/48
f 21/30/30 5/29/29 80/144/48 90/145/47
f 61/118/97 21/30/30 79/146/57 87/147/56
f 1/115/96 61/118/97 87/147/56 82/148/102
f 13/113/95 1/115/96 82/148/102 78/149/60
f 13/113/95 78/149/60 77/150/58 7/48/43
f 7/48/43 77/150/58 76/151/59 10/2/2
f 10/2/2 76/151/59 83/152/99 2/3/3
f 2/3/3 83/152/99 88/153/65 64/110/94
f 64/110/94 88/153/65 75/23/23 22/26/26
f 24/46/31 12/45/31 74/154/24 75/74/23
f 12/45/31 19/57/31 73/136/52 74/154/24
f 17/61/53 73/60/52 89/132/100 63/126/98
f 19/57/31 84/139/14 89/137/100
f 180/155/103 165/156/104 93/157/105 109/158/106
f 160/159/107 110/160/108 95/161/109 161/162/110
f 178/163/111 173/164/112 94/165/113 157/166/114
f 183/167/115 195/168/116 95/161/109 110/160/108
f 153/169/117 154/18/18 99/17/17 136/170/118
f 148/171/119 126/22/22 102/21/21 137/172/120
f 186/173/121 129/174/122 101/175/123 185/176/124
f 169/177/125 128/178/126 100/179/127 170/180/128
f 132/181/129 130/182/129 108/183/129 118/184/129
f 181/185/130 182/186/131 105/187/132 116/188/133
f 158/189/134 116/188/133 105/187/132 159/190/135
f 117/41/38 96/44/41 133/191/136 143/192/137
f 130/182/129 131/193/129 112/194/129 108/183/129
f 182/186/131 183/167/115 110/160/108 105/187/132
f 159/190/135 105/187/132 110/160/108 160/159/107
f 166/195/138 180/155/103 109/158/106 104/196/139
f 168/197/140 143/192/137 133/191/136 167/198/141
f 157/166/114 94/165/113 116/188/133 158/189/134
f 196/199/142 181/185/130 116/188/133 94/165/113
f 201/200/143 132/181/129 118/184/129 191/201/144
f 191/201/144 118/184/129 125/202/129 192/203/145
f 108/183/129 112/194/129 124/204/129 123/205/129
f 118/184/129 108/183/129 123/205/129 125/202/129
f 137/172/120 102/21/21 121/59/51 145/206/146
f 185/176/124 101/175/123 120/207/147 184/208/148
f 170/180/128 100/179/127 119/209/149 171/210/150
f 198/211/151 132/181/129 190/212/152
f 188/213/153 187/214/154 131/193/129 130/182/129
f 189/215/155 188/213/153 130/182/129 132/181/129
f 151/216/156 147/217/157 127/71/63 152/70/62
f 199/218/158 186/219/121 131/193/129
f 155/220/159 156/76/67 126/22/22 148/171/119
f 176/221/160 155/220/159 148/171/119 164/222/161
f 167/223/141 133/224/136 140/225/162 166/226/138
f 103/83/71 138/227/163 146/228/164 122/84/72
f 163/229/165 137/172/120 145/206/146 162/230/166
f 98/89/77 134/231/167 144/232/168 114/90/78
f 107/93/81 111/95/83 142/233/169 140/225/162
f 106/96/84 139/234/170 141/235/171 113/97/85
f 96/100/41 107/93/81 140/225/162 133/224/136
f 114/90/78 144/232/168 139/234/170 106/96/84
f 127/71/63 147/217/157 138/227/163 103/83/71
f 164/222/161 148/171/119 137/172/120 163/229/165
f 177/236/172 153/169/117 136/170/118 161/237/110
f 150/103/89 149/238/173 134/231/167 98/89/77
f 113/97/85 141/235/171 136/170/118 99/17/17
f 111/95/83 97/106/92 135/239/174 142/233/169
f 179/240/175 169/241/125 147/217/157 151/216/156
f 143/192/137 151/216/156 152/70/62 117/41/38
f 122/84/72 146/228/164 149/238/173 150/103/89
f 145/206/146 121/59/51 154/18/18 153/169/117
f 135/239/174 97/106/92 156/76/67 155/220/159
f 168/197/140 179/240/175 151/216/156 143/192/137
f 171/210/150 119/209/149 173/164/112 178/163/111
f 162/230/166 145/206/146 153/169/117 177/236/172
f 165/242/104 135/239/174 155/220/159 176/221/160
f 93/157/105 165/156/104 176/243/160 175/244/176
f 142/233/169 135/239/174 165/242/104 180/245/103
f 140/225/162 142/233/169 180/245/103 166/226/138
f 115/246/177 167/247/141 166/195/138 104/196/139
f 92/248/178 168/249/140 167/247/141 115/246/177
f 92/248/178 172/250/179 179/251/175 168/249/140
f 172/250/179 128/178/126 169/177/125 179/251/175
f 147/217/157 169/241/125 170/252/128 138/227/163
f 138/227/163 170/252/128 171/253/150 146/228/164
f 146/228/164 171/253/150 178/254/111 149/238/173
f 149/238/173 178/254/111 157/255/114 134/231/167
f 134/231/167 157/255/114 158/256/134 144/232/168
f 144/232/168 158/256/134 159/257/135 139/234/170
f 139/234/170 159/257/135 160/258/107 141/235/171
f 141/235/171 160/258/107 161/237/110 136/170/118
f 174/259/180 177/260/172 161/162/110 95/161/109
f 120/207/147 162/261/166 177/260/172 174/259/180
f 101/175/123 163/262/165 162/261/166 120/207/147
f 129/174/122 164/263/161 163/262/165 101/175/123
f 175/244/176 176/243/160 164/263/161 129/174/122
f 187/214/154 194/264/181 131/193/129
f 195/168/116 200/265/182 174/259/180 95/161/109
f 197/266/183 125/202/129 196/267/142
f 189/215/155 132/181/129 193/268/184
f 192/203/145 125/202/129 197/266/183
f 193/268/184 132/181/129 198/211/151
f 194/264/181 199/218/158 131/193/129
f 184/269/148 200/270/182 124/204/129
f 124/204/129 195/271/116 183/272/115
f 123/205/129 124/204/129 183/272/115 182/273/131
f 125/202/129 123/205/129 182/273/131 181/274/130
f 125/202/129 181/274/130 196/267/142
f 173/164/112 197/275/183 196/199/142 94/165/113
f 119/209/149 192/276/145 197/275/183 173/164/112
f 100/179/127 191/277/144 192/276/145 119/209/149
f 128/178/126 201/278/143 191/277/144 100/179/127
f 172/250/179 198/279/151 190/280/152 128/178/126
f 92/248/178 193/281/184 198/279/151 172/250/179
f 115/246/177 189/282/155 193/281/184 92/248/178
f 115/246/177 104/196/139 188/283/153 189/282/155
f 104/196/139 109/158/106 187/284/154 188/283/153
f 109/158/106 93/157/105 194/285/181 187/284/154
f 93/157/105 175/244/176 199/286/158 194/285/181
f 175/244/176 129/174/122 186/173/121 199/286/158
f 131/193/129 186/219/121 185/287/124 112/194/129
f 112/194/129 185/287/124 184/269/148 124/204/129
f 120/207/147 174/259/180 200/265/182 184/208/148
f 124/204/129 200/270/182 195/271/116
l 90 91
l 201 202
